<svg width="407px" height="183px" viewBox="0 0 407 183" version="1.1" xmlns="http://www.w3.org/2000/svg" xmlns:xlink="http://www.w3.org/1999/xlink">
    <title>Group 30</title>
    <g id="Page-1" stroke="none" stroke-width="1" fill="none" fill-rule="evenodd">
        <g id="Group-30" transform="translate(0.500200, 0.000000)">
            <polygon id="Fill-27" fill="#FFEC00" points="179.772327 87.5613 190.091789 8.0263 82.0051411 15.2063 81.4963313 92.5563 168.534419 97.0843"></polygon>
            <path d="M81.917,28.5713 L114.973,36.490612 L134.192,55.027612 L106.639,65.522612 L87.445,69.556612 L87.474,69.552612 L115.313,75.785612 L140.31,83.950612 L159.95,79.350612 L172.475,90.899612 L178.133,80.334612 L179.799,87.3563 L179.772327,87.5613 L169.684,96.1103 L170.104,95.325612 L159.951,95.867612 L152.051,96.2263 L81.742,92.5693 L87.443,69.555612 L87.449,69.547612 L89.341,49.900612 L81.818,43.6693 L81.917,28.5713 Z M81.66,67.6833 L87.432,69.553612 L81.628,72.6343 L81.66,67.6833 Z" id="Combined-Shape" fill="#B0C50B"></path>
            <path d="M164.6359,16.761912 L183.352331,59.965912 L179.772327,87.5613 L168.534419,97.0843 L149.967331,96.117912 L172.2099,90.959912 L159.9509,79.350912 L172.5029,68.617912 L151.7099,43.547912 L162.5019,21.863912 L136.1619,55.258912 L133.5119,55.505912 L134.1919,55.258912 L114.6329,36.830912 L164.6359,16.761912 Z M87.4328,69.553412 L87.4428,69.556412 L81.7413313,92.568912 L81.4963313,92.5563 L81.6273313,72.634912 L87.4328,69.553412 Z M87.4452,69.556212 L115.3132,75.785212 L125.8582,91.798212 L94.7662,76.697212 L87.4452,69.556212 Z M81.8183313,43.581912 L89.3419,49.899912 L87.4499,69.547912 L87.3659,69.530912 L81.6603313,67.654912 L81.8183313,43.581912 Z" id="Combined-Shape" fill="#459B0E"></path>
            <path d="M76.1666,107.716912 L89.7099,126.879912 L97.1074431,110.295914 L76.1666,107.716912 Z M103.382662,111.066401 L108.8499,126.030912 L113.998205,112.392302 L103.382662,111.066401 Z M121.378321,113.295263 L124.4979,122.176912 L128.503218,114.201504 L121.378321,113.295263 Z M37.05,104.070012 L45.295,93.083012 L31.522,92.286012 L37.05,104.070012 Z" id="zähne" fill="#FFFFFF"></path>
            <path d="M81.4822394,43.4516983 L81.4822394,28.9123802 L55.7859,22.390912 L81.4822394,43.4516983 Z M48.163,75.785612 L48.166,75.836612 L30.487,87.065612 L32.836,74.789612 L8.665,78.828612 L8.659,78.836612 L8.652,78.843612 L0,89.792612 L0.106,89.792612 L30.377,87.145612 L51.287,88.739612 L80.5506347,73.3709412 L72.299,64.649612 L47.193,61.178612 L48.163,75.785612 Z M169.213835,97.346412 L160.298,113.634612 L189.533,128.393612 C183.193464,102.121759 180.023695,88.9858322 180.023695,88.9858322 C180.023695,88.9858322 176.420409,91.7726921 169.213835,97.346412 Z M5.8,93.172612 L6.476,106.348612 L7.967,110.317612 L12.35,122.237612 L12.355,122.233612 L26.428,125.086612 L37.064,104.063612 L37.057,104.059612 L37.063,104.052612 L37.034,104.033612 L37.04,104.048612 L30.432,99.675612 L19.798,92.652612 L5.8,93.172612 Z M37.311,103.721612 L45.292,93.086612 L45.273,93.080612 L45.061,93.069612 L37.311,103.721612 Z M37.074,104.056612 L73.829,104.829612 L90.481,104.069612 L74.127,100.505612 L45.3,93.097612 L37.074,104.056612 Z M105.32,154.706612 L147.227,139.066612 L137.942,114.016612 L137.939,114.019612 L137.941,114.014612 L137.939,114.009612 L105.32,154.706612 Z M151.442,144.546612 L124.426,177.622612 L161.111,181.098612 L151.444,144.541612 L151.442,144.546612 Z" id="hellblaue-fläche-aussen" fill="#9DCAED"></path>
            <path d="M64.7059,149.777912 L101.7389,182.509912 L45.9189,176.307912 L55.0409,163.276912 L64.7059,149.777912 Z M146.4319,98.884912 L174.9155,100.008012 L160.2969,113.634912 L189.5269,128.390912 L161.1229,181.073912 L161.1019,181.065912 L160.1049,177.296912 L151.4419,144.540912 L160.2969,113.644912 L147.2399,139.049912 L137.9419,114.010912 L146.4319,98.884912 Z M136.7649,97.643912 L141.0859,98.197912 L137.9419,114.010912 L137.8859,113.971912 L137.9359,114.012912 L105.3599,154.700912 L105.3199,154.715912 L40.0499,127.847912 L26.4289,125.086912 L31.3469,115.364912 L37.0639,104.063912 L37.0749,104.056912 L73.8139,104.828912 L76.0819,105.112912 L76.1949,107.802912 L89.7099,126.879912 L100.3469,102.820912 L100.3469,102.650912 L108.8499,126.030912 L117.0369,104.295912 L117.0369,100.511912 L124.4979,122.176912 L136.7649,97.643912 Z M6.4594,106.304112 L6.4764,106.349112 L7.9684,110.317112 L12.3504,122.238112 L3.2994,129.831112 L3.2874,129.829112 L6.4734,106.357112 L6.4594,106.304112 Z M359.5259,33.484912 L371.9519,53.973912 L385.0829,33.484912 L406.3299,33.484912 L382.2629,69.769912 L403.1329,100.219912 L383.1399,100.219912 L373.0539,84.338912 L362.4749,100.219912 L340.4789,100.219912 L362.2519,68.299912 L351.0739,50.393912 L306.8069,50.382912 C302.6769,50.382912 299.7519,52.730912 298.3199,58.777912 L332.2829,58.777912 L330.7709,73.831912 L296.7079,73.831912 C296.9609,80.798912 299.2449,83.078912 305.0789,83.097912 C308.187471,83.113785 315.716703,83.213911 323.291865,83.2979568 L324.995206,83.3165534 C328.773928,83.3570881 332.482106,83.3917215 335.5729,83.407912 L333.8169,100.446912 L304.5449,100.446912 C287.2909,100.446912 277.7529,86.993912 279.9419,65.536912 C282.2659,42.877912 291.3349,33.487912 306.8039,33.487912 L340.5279,33.498912 L340.5199,33.484912 L359.5259,33.484912 Z M253.5349,33.484912 C269.3769,33.484912 278.7259,45.770912 277.7689,56.777912 C277.0009,65.444912 273.8219,72.572912 264.5399,77.641912 L274.6449,100.445912 L256.0799,100.445912 L247.0999,80.191912 L230.6659,80.191912 L228.6169,100.445912 L211.5599,100.445912 L218.2879,33.497912 L253.5349,33.484912 Z M81.4822394,72.708912 L80.3088,98.347412 L80.1598,98.307412 L51.7478,88.775412 L51.2868,88.740412 L81.4822394,72.708912 Z M137.0839,97.345912 L136.9129,97.346912 L136.7649,97.643912 L134.4909,97.351912 L136.9129,97.346912 L137.0839,97.345912 Z M8.6521,78.844112 L0.0151,89.772112 L0.0011,89.744112 L2.3901,79.890112 L2.4091,79.787112 L2.4091,79.893112 L8.6521,78.844112 Z M33.5659,58.351912 L33.6409,58.357912 L47.1379,61.166912 L47.1409,61.196912 L32.8359,74.799912 L48.1629,75.785912 L48.1659,75.836912 L30.4879,87.065912 L32.8369,74.789912 L8.6649,78.828912 L8.6589,78.836912 L2.4089,67.667912 L2.4089,67.755912 L2.3899,67.624912 L33.5659,58.351912 Z M55.7859,22.390912 L62.6569,27.492912 L81.4822394,43.4516983 L81.4822394,67.8023453 L50.3699,57.371912 L50.3169,57.374912 L66.2189,46.489912 L55.7859,22.390912 Z M233.6739,50.393912 L232.3729,63.220912 L252.2389,63.220912 C257.2479,63.220912 260.7329,60.724912 260.7329,56.602912 C260.7329,53.466912 258.3209,50.474912 253.9589,50.474912 L253.012457,50.4740234 C249.038617,50.4674751 240.475329,50.4260549 233.6739,50.393912 Z" id="blaue-fläche-aussen" fill="#3B99D4"></path>
            <path d="M385.253751,154.5327 L388.091565,127.5327 L370.091565,127.5327 L367.253751,154.5327 L358.253751,154.5327 L362.037503,118.5327 L398.037503,118.5327 L394.253751,154.5327 L385.253751,154.5327 Z M335.753751,154.5327 L337.172658,141.0327 L319.172658,141.0327 L317.753751,154.5327 L308.753751,154.5327 L312.537503,118.5327 L348.537503,118.5327 L344.753751,154.5327 L335.753751,154.5327 Z M320.591565,127.5327 L338.591565,127.5327 L338.118596,132.0327 L320.118596,132.0327 L320.591565,127.5327 Z M272.753751,154.5327 L275.591565,127.5327 L262.091565,127.5327 L263.037503,118.5327 L299.037503,118.5327 L298.091565,127.5327 L284.591565,127.5327 L281.753751,154.5327 L272.753751,154.5327 Z M209.753751,154.5327 L210.699689,145.5327 L237.699689,145.5327 L238.172658,141.0327 L211.172658,141.0327 L213.537503,118.5327 L249.537503,118.5327 L248.591565,127.5327 L221.591565,127.5327 L221.118596,132.0327 L248.118596,132.0327 L245.753751,154.5327 L209.753751,154.5327 Z" id="Fill-21" fill="#FFFADB"></path>
            <path d="M188.0336,121.475912 L206.9336,139.269912 L212.5986,115.086912 L193.2636,96.802912 L201.8776,2.834912 L72.4116,8.668912 L76.1666,107.716912 L188.0336,121.475912 Z M192.4156,10.844912 L182.0966,90.379912 L170.8586,99.902912 L83.8196,95.374912 L84.3296,18.024912 L192.4156,10.844912 Z" id="schattren-lupe" fill="#172E24"></path>
            <path d="M64.6973903,149.778 L54.9033096,163.508 L33.4757231,139.29 L3.48576239,129.604 L12.5556053,121.994 L40.2505504,127.608 L105.520611,154.476 L147.174609,138.901 L158.003142,117.755 L159.307331,117.953 L151.642415,144.307 L124.620043,177.392 L101.739014,182.511 L64.6973903,149.778 Z M358.01034,114.033 L403.01034,114.033 L398.280651,159.033 L353.280651,159.033 L358.01034,114.033 Z M388.091433,127.533 L385.25362,154.533 L394.25362,154.533 L398.037371,118.533 L362.037371,118.533 L358.25362,154.533 L367.25362,154.533 L370.091433,127.533 L388.091433,127.533 Z M308.51034,114.033 L353.51034,114.033 L348.780651,159.033 L303.780651,159.033 L308.51034,114.033 Z M337.172526,141.033 L335.75362,154.533 L344.75362,154.533 L348.537371,118.533 L312.537371,118.533 L308.75362,154.533 L317.75362,154.533 L319.172526,141.033 L337.172526,141.033 Z M259.01034,114.033 L304.01034,114.033 L299.280651,159.033 L254.280651,159.033 L259.01034,114.033 Z M262.091433,127.533 L275.591433,127.533 L272.75362,154.533 L281.75362,154.533 L284.591433,127.533 L298.091433,127.533 L299.037371,118.533 L263.037371,118.533 L262.091433,127.533 Z M204.781651,159.033 L207.107607,136.903 L187.858581,118.864 L73.8291484,104.882 L73.658802,100.385 L45.2996963,93.098 L45.2462339,93.169 L45.2371799,93.16 L45.296378,93.082 L31.5230409,92.286 L35.1398977,99.994 L35.1323722,99.999 L36.7817781,103.877 L19.8196779,92.651 L5.7998135,93.173 L6.47606566,106.348 L0.0001197547,89.802 L30.3772765,87.146 L51.7480618,88.775 L73.4952215,96.071 L72.3517948,65.905 L47.1936224,61.178 L47.1905653,61.15 L47.1681479,61.173 L33.5891724,58.347 L50.370649,57.372 L72.3015864,64.594 L70.0744041,5.835 L199.540687,0 L190.926256,93.968 L211.59034,114.033 L254.51034,114.033 L249.780651,159.033 L204.781651,159.033 Z M209.75362,154.533 L245.75362,154.533 L248.118464,132.033 L221.118464,132.033 L221.591433,127.533 L248.591433,127.533 L249.537371,118.533 L213.537371,118.533 L211.172526,141.033 L238.172526,141.033 L237.699558,145.533 L210.700558,145.533 L209.75362,154.533 Z M81.9911543,15.19 L81.4822394,92.541 L168.522433,97.068 L179.758235,87.546 L190.077802,8.01 L81.9911543,15.19 Z M320.591433,127.533 L338.591433,127.533 L338.118464,132.033 L320.118464,132.033 L320.591433,127.533 Z M2.40949612,67.668 L8.66195668,78.843 L2.40959727,79.893 L2.40949612,67.668 Z M32.836893,74.8 L47.1681479,61.173 L47.1936224,61.178 L48.1633653,75.785 L32.836893,74.8 Z" id="grau-+-liupe" fill="#364751"></path>
            <polygon id="auge" fill="#3A4623" points="102.438273 43.751 105.526374 64.91 87.4450594 69.556 115.313365 75.785 122.455849 62.603 140.309084 83.951 151.029333 53.065 159.951137 79.317 183.325444 60.057 162.42515 46.949 164.583931 16.762 133.885803 55.03"></polygon>
            <path d="M122.642649,62.538 L140.4968,83.885412 L115.4998,75.720612 L122.642649,62.538 Z M151.216133,53 L160.137937,79.252 L140.4968,83.886 L151.216133,53 Z" id="Combined-Shape" fill="#FFEC00"></path>
            <path d="M184.1385,53.521912 L166.2235,9.584912 L161.6315,9.924912 L183.3445,60.041912 L184.1385,53.521912 Z M181.3605,74.837912 L153.6375,10.434912 L146.2675,10.944912 L179.8295,87.480912 L181.3605,74.837912 Z" id="spiegelung" fill="#FFFADB"></path>
        </g>
    </g>
</svg>
