<?xml version="1.0" encoding="utf-8"?>
<!-- Generator: Adobe Illustrator 27.7.0, SVG Export Plug-In . SVG Version: 6.00 Build 0)  -->
<svg version="1.1" id="Ebene_1" xmlns:serif="http://www.serif.com/"
	 xmlns="http://www.w3.org/2000/svg" xmlns:xlink="http://www.w3.org/1999/xlink" x="0px" y="0px" viewBox="0 0 600 600"
	 enable-background="new 0 0 600 600" xml:space="preserve">
<g transform="matrix(1,0,0,1,-42.5002,-72)">
	<path fill-rule="evenodd" clip-rule="evenodd" fill-opacity="0.2" d="M545.3,361.7L574,140.5l-300.7,20l-1.4,215.2l242.1,12.6
		L545.3,361.7z"/>
	<path fill-rule="evenodd" clip-rule="evenodd" fill="#B0C50B" d="M273.1,197.6l92,22l53.5,51.6l-76.6,29.2l-53.4,11.2l0.1,0
		L366,329l69.5,22.7l54.6-12.8L525,371l15.7-29.4l4.6,19.5l-0.1,0.6l-28.1,23.8l1.2-2.2l-28.2,1.5l-22,1l-195.6-10.2l15.9-64l0,0
		l5.3-54.7l-20.9-17.3L273.1,197.6z M272.4,306.4l16.1,5.2l-16.1,8.6L272.4,306.4z"/>
	<path fill-rule="evenodd" clip-rule="evenodd" d="M503.2,164.8L555.3,285l-10,76.8l-31.3,26.5l-51.6-2.7l61.9-14.3l-34.1-32.3
		l34.9-29.9l-57.8-69.7l30-60.3L424,271.9l-7.4,0.7l1.9-0.7l-54.4-51.3L503.2,164.8z M288.5,311.6L288.5,311.6l-15.8,64l-0.7,0
		l0.4-55.4L288.5,311.6z M288.5,311.6L366,329l29.3,44.5l-86.5-42L288.5,311.6z M272.8,239.4l20.9,17.6l-5.3,54.7l-0.2,0l-15.9-5.2
		L272.8,239.4z"/>
	<path fill-rule="evenodd" clip-rule="evenodd" fill="#FFFFFF" d="M257.1,417.8l37.7,53.3l20.6-46.1L257.1,417.8z M332.8,427.1
		l15.2,41.6l14.3-37.9L332.8,427.1z M382.9,433.3l8.7,24.7l11.1-22.2L382.9,433.3z M148.3,407.6l22.9-30.6l-38.3-2.2L148.3,407.6z"
		/>
	<path fill-rule="evenodd" clip-rule="evenodd" d="M271.9,239v-40.4l-71.5-18.1L271.9,239z M179.2,329l0,0.1l-49.2,31.2l6.5-34.1
		l-67.2,11.2l0,0l0,0l-24.1,30.5h0.3l84.2-7.4l58.2,4.4l81.4-42.8l-23-24.3l-69.8-9.7L179.2,329z M515.9,388.9l-24.8,45.3l81.3,41.1
		C554.8,402.2,546,365.7,546,365.7S536,373.4,515.9,388.9z M61.4,377.3l1.9,36.7l4.1,11l12.2,33.2l0,0l39.1,7.9l29.6-58.5l0,0l0,0
		l-0.1-0.1l0,0l-18.4-12.2l-29.6-19.5L61.4,377.3z M149,406.7l22.2-29.6l-0.1,0l-0.6,0L149,406.7z M148.4,407.6l102.2,2.2l46.3-2.1
		l-45.5-9.9l-80.2-20.6L148.4,407.6z M338.2,548.5L454.8,505L429,435.3l0,0l0,0l0,0L338.2,548.5z M466.5,520.2l-75.1,92l102,9.7
		L466.5,520.2L466.5,520.2z"/>
	<path fill-rule="evenodd" clip-rule="evenodd" fill-opacity="0.6" d="M225.2,534.8l103,91L173,608.6l25.4-36.2L225.2,534.8z
		 M452.6,393.2l79.2,3.1l-40.7,37.9l81.3,41l-79,146.5l-0.1,0l-2.8-10.5l-24.1-91.1l24.6-85.9l-36.3,70.7L429,435.3L452.6,393.2z
		 M425.7,389.8l12,1.5l-8.7,44l-0.2-0.1l0.1,0.1l-90.6,113.2l-0.1,0l-181.6-74.7l-37.9-7.7l13.7-27l15.9-31.4l0,0l102.2,2.1l6.3,0.8
		l0.3,7.5l37.6,53.1l29.6-66.9v-0.5l23.7,65l22.8-60.5v-10.5l20.8,60.3L425.7,389.8z M63.2,413.9l0,0.1l4.2,11l12.2,33.2l-25.2,21.1
		l0,0l8.9-65.3L63.2,413.9z M271.9,320.4l-3.3,71.3l-0.4-0.1l-79-26.5l-1.3-0.1L271.9,320.4z M426.6,388.9l-0.5,0l-0.4,0.8l-6.3-0.8
		l6.7,0L426.6,388.9z M69.3,337.5l-24,30.4l0-0.1l6.6-27.4l0.1-0.3v0.3L69.3,337.5z M138.6,280.5l0.2,0l37.5,7.8l0,0.1l-39.8,37.8
		l42.6,2.7l0,0.1l-49.2,31.2l6.5-34.1l-67.2,11.2l0,0L52,306.4v0.2l-0.1-0.4L138.6,280.5z M200.4,180.4l19.1,14.2l52.4,44.4v67.7
		l-86.5-29l-0.1,0l44.2-30.3L200.4,180.4z"/>
	<path fill-rule="evenodd" clip-rule="evenodd" fill="#172E1A" d="M568.3,456.1l58.8,53.9l12.6-66.6l-56.9-55.9l24-261.4
		l-360.1,16.2l10.4,275.5L568.3,456.1z M580.5,148.3l-28.7,221.2l-31.3,26.5l-242.1-12.6l1.4-215.2L580.5,148.3z"/>
	<path fill-rule="evenodd" clip-rule="evenodd" fill-opacity="0.2" d="M225.2,534.8L198,573l-59.6-67.4l-83.4-26.9l25.2-21.2
		l77,15.6l181.6,74.7l115.9-43.3l30.1-58.8l3.6,0.6l-21.3,73.3l-75.2,92l-63.6,14.2L225.2,534.8z M633.8,435.4l-66,13.4l-317.2-38.9
		l-0.5-12.5l-78.9-20.3l-0.2,0.2l0,0l0.2-0.2l-38.3-2.2l10.1,21.4l0,0l4.6,10.8l-47.2-31.2l-39,1.5l1.9,36.6l-18-46l84.5-7.4
		l59.4,4.5l60.5,20.3l-3.2-83.9l-70-13.1l0-0.1l-0.1,0.1l-37.8-7.9l46.7-2.7l61,20.1l-6.2-163.4l360.1-16.2l-24,261.4L633.8,435.4z
		 M273.3,160.4l-1.4,215.2L514,388.2l31.3-26.5L574,140.4L273.3,160.4z M52,306.4l17.4,31.1L52,340.4V306.4z M136.6,326.2l39.9-37.9
		l0.1,0l2.7,40.6L136.6,326.2z"/>
	<path fill-rule="evenodd" clip-rule="evenodd" fill="#3A4623" d="M330.2,239.9l8.6,58.9l-50.3,12.9L366,329l19.9-36.7l49.7,59.4
		l29.8-85.9l24.8,73l65-53.6l-58.1-36.5l6-84l-85.4,106.4L330.2,239.9z"/>
	<path fill-rule="evenodd" clip-rule="evenodd" fill="#FFEC00" d="M385.8,292.4l49.7,59.4L366,329.1L385.8,292.4z M465.3,265.9
		l24.8,73l-54.6,12.9L465.3,265.9z"/>
	<path fill-rule="evenodd" clip-rule="evenodd" fill="#FFFADB" d="M557.5,267l-49.8-122.2l-12.8,0.9l60.4,139.4L557.5,267z
		 M549.7,326.3l-77.1-179.1l-20.5,1.4l93.4,212.9L549.7,326.3z"/>
	<path fill-rule="evenodd" clip-rule="evenodd" fill="#FFED00" d="M633.8,435.4L621.4,499l-53.5-50.2l-317.2-38.9l-10.4-275.5
		l360.1-16.2l-24,261.4L633.8,435.4z M273.3,160.4l-1.4,215.2L514,388.2l31.3-26.5L574,140.4L273.3,160.4z"/>
</g>
</svg>
