<svg width="509px" height="315px" viewBox="0 0 509 315" version="1.1" xmlns="http://www.w3.org/2000/svg" xmlns:xlink="http://www.w3.org/1999/xlink">
    <title>Group 30 Copy</title>
    <g id="Page-1" stroke="none" stroke-width="1" fill="none" fill-rule="evenodd">
        <g id="Group-30-Copy">
            <polygon id="Fill-1" fill="#364751" points="0 28.346 8.505 300.392 481.89 314.565 508.252 0"></polygon>
            <polygon id="Fill-27" fill="#3A4623" points="222.272527 159.5613 232.591989 80.0263 124.505341 87.2063 123.996531 164.5563 211.034619 169.0843"></polygon>
            <path d="M124.4172,100.5713 L157.4732,108.490612 L176.6922,127.027612 L149.1392,137.522612 L129.9452,141.556612 L129.9742,141.552612 L157.8132,147.785612 L182.8102,155.950612 L202.4502,151.350612 L214.9752,162.899612 L220.6332,152.334612 L222.2992,159.3563 L222.272527,159.5613 L212.1842,168.1103 L212.6042,167.325612 L202.4512,167.867612 L194.5512,168.2263 L124.2422,164.5693 L129.9432,141.555612 L129.9492,141.547612 L131.8412,121.900612 L124.3182,115.6693 L124.4172,100.5713 Z M124.1602,139.6833 L129.9322,141.553612 L124.1282,144.6343 L124.1602,139.6833 Z" id="Combined-Shape" fill="#B0C50B"></path>
            <path d="M207.1361,88.761912 L225.852531,131.965912 L222.272527,159.5613 L211.034619,169.0843 L192.467531,168.117912 L214.7101,162.959912 L202.4511,151.350912 L215.0031,140.617912 L194.2101,115.547912 L205.0021,93.863912 L178.6621,127.258912 L176.0121,127.505912 L176.6921,127.258912 L157.1331,108.830912 L207.1361,88.761912 Z M129.933,141.553412 L129.943,141.556412 L124.241531,164.568912 L123.996531,164.5563 L124.127531,144.634912 L129.933,141.553412 Z M129.9454,141.556212 L157.8134,147.785212 L168.3584,163.798212 L137.2664,148.697212 L129.9454,141.556212 Z M124.318531,115.581912 L131.8421,121.899912 L129.9501,141.547912 L129.8661,141.530912 L124.160531,139.654912 L124.318531,115.581912 Z" id="Combined-Shape" fill="#459B0E"></path>
            <path d="M118.6668,179.716912 L132.2101,198.879912 L139.607643,182.295914 L118.6668,179.716912 Z M145.882862,183.066401 L151.3501,198.030912 L156.498405,184.392302 L145.882862,183.066401 Z M163.878521,185.295263 L166.9981,194.176912 L171.003418,186.201504 L163.878521,185.295263 Z M79.5502,176.070012 L87.7952,165.083012 L74.0222,164.286012 L79.5502,176.070012 Z" id="zähne" fill="#FFFFFF"></path>
            <path d="M123.982439,115.451698 L123.982439,100.91238 L98.2861,94.390912 L123.982439,115.451698 Z M90.6632,147.785612 L90.6662,147.836612 L72.9872,159.065612 L75.3362,146.789612 L51.1652,150.828612 L51.1592,150.836612 L51.1522,150.843612 L42.5002,161.792612 L42.6062,161.792612 L72.8772,159.145612 L93.7872,160.739612 L123.050835,145.370941 L114.7992,136.649612 L89.6932,133.178612 L90.6632,147.785612 Z M211.714035,169.346412 L202.7982,185.634612 L232.0332,200.393612 C225.693664,174.121759 222.523895,160.985832 222.523895,160.985832 C222.523895,160.985832 218.920609,163.772692 211.714035,169.346412 Z M48.3002,165.172612 L48.9762,178.348612 L50.4672,182.317612 L54.8502,194.237612 L54.8552,194.233612 L68.9282,197.086612 L79.5642,176.063612 L79.5572,176.059612 L79.5632,176.052612 L79.5342,176.033612 L79.5402,176.048612 L72.9322,171.675612 L62.2982,164.652612 L48.3002,165.172612 Z M79.8112,175.721612 L87.7922,165.086612 L87.7732,165.080612 L87.5612,165.069612 L79.8112,175.721612 Z M79.5742,176.056612 L116.3292,176.829612 L132.9812,176.069612 L116.6272,172.505612 L87.8002,165.097612 L79.5742,176.056612 Z M147.8202,226.706612 L189.7272,211.066612 L180.4422,186.016612 L180.4392,186.019612 L180.4412,186.014612 L180.4392,186.009612 L147.8202,226.706612 Z M193.9422,216.546612 L166.9262,249.622612 L203.6112,253.098612 L193.9442,216.541612 L193.9422,216.546612 Z" id="hellblaue-fläche-aussen" fill="#9DCAED"></path>
            <path d="M107.2061,221.777912 L144.2391,254.509912 L88.4191,248.307912 L97.5411,235.276912 L107.2061,221.777912 Z M188.9321,170.884912 L217.4157,172.008012 L202.7971,185.634912 L232.0271,200.390912 L203.6231,253.073912 L203.6021,253.065912 L202.6051,249.296912 L193.9421,216.540912 L202.7971,185.644912 L189.7401,211.049912 L180.4421,186.010912 L188.9321,170.884912 Z M179.2651,169.643912 L183.5861,170.197912 L180.4421,186.010912 L180.3861,185.971912 L180.4361,186.012912 L147.8601,226.700912 L147.8201,226.715912 L82.5501,199.847912 L68.9291,197.086912 L73.8471,187.364912 L79.5641,176.063912 L79.5751,176.056912 L116.3141,176.828912 L118.5821,177.112912 L118.6951,179.802912 L132.2101,198.879912 L142.8471,174.820912 L142.8471,174.650912 L151.3501,198.030912 L159.5371,176.295912 L159.5371,172.511912 L166.9981,194.176912 L179.2651,169.643912 Z M48.9596,178.304112 L48.9766,178.349112 L50.4686,182.317112 L54.8506,194.238112 L45.7996,201.831112 L45.7876,201.829112 L48.9736,178.357112 L48.9596,178.304112 Z M402.0261,105.484912 L414.4521,125.973912 L427.5831,105.484912 L448.8301,105.484912 L424.7631,141.769912 L445.6331,172.219912 L425.6401,172.219912 L415.5541,156.338912 L404.9751,172.219912 L382.9791,172.219912 L404.7521,140.299912 L393.5741,122.393912 L349.3071,122.382912 C345.1771,122.382912 342.2521,124.730912 340.8201,130.777912 L374.7831,130.777912 L373.2711,145.831912 L339.2081,145.831912 C339.4611,152.798912 341.7451,155.078912 347.5791,155.097912 C350.687671,155.113785 358.216903,155.213911 365.792065,155.297957 L367.495406,155.316553 C371.274128,155.357088 374.982306,155.391722 378.0731,155.407912 L376.3171,172.446912 L347.0451,172.446912 C329.7911,172.446912 320.2531,158.993912 322.4421,137.536912 C324.7661,114.877912 333.8351,105.487912 349.3041,105.487912 L383.0281,105.498912 L383.0201,105.484912 L402.0261,105.484912 Z M296.0351,105.484912 C311.8771,105.484912 321.2261,117.770912 320.2691,128.777912 C319.5011,137.444912 316.3221,144.572912 307.0401,149.641912 L317.1451,172.445912 L298.5801,172.445912 L289.6001,152.191912 L273.1661,152.191912 L271.1171,172.445912 L254.0601,172.445912 L260.7881,105.497912 L296.0351,105.484912 Z M123.982439,144.708912 L122.809,170.347412 L122.66,170.307412 L94.248,160.775412 L93.787,160.740412 L123.982439,144.708912 Z M179.5841,169.345912 L179.4131,169.346912 L179.2651,169.643912 L176.9911,169.351912 L179.4131,169.346912 L179.5841,169.345912 Z M51.1523,150.844112 L42.5153,161.772112 L42.5013,161.744112 L44.8903,151.890112 L44.9093,151.787112 L44.9093,151.893112 L51.1523,150.844112 Z M76.0661,130.351912 L76.1411,130.357912 L89.6381,133.166912 L89.6411,133.196912 L75.3361,146.799912 L90.6631,147.785912 L90.6661,147.836912 L72.9881,159.065912 L75.3371,146.789912 L51.1651,150.828912 L51.1591,150.836912 L44.9091,139.667912 L44.9091,139.755912 L44.8901,139.624912 L76.0661,130.351912 Z M98.2861,94.390912 L105.1571,99.492912 L123.982439,115.451698 L123.982439,139.802345 L92.8701,129.371912 L92.8171,129.374912 L108.7191,118.489912 L98.2861,94.390912 Z M276.1741,122.393912 L274.8731,135.220912 L294.7391,135.220912 C299.7481,135.220912 303.2331,132.724912 303.2331,128.602912 C303.2331,125.466912 300.8211,122.474912 296.4591,122.474912 L295.512657,122.474023 C291.538817,122.467475 282.975529,122.426055 276.1741,122.393912 Z" id="blaue-fläche-aussen" fill="#3B99D4"></path>
            <path d="M427.753951,226.5327 L430.591765,199.5327 L412.591765,199.5327 L409.753951,226.5327 L400.753951,226.5327 L404.537703,190.5327 L440.537703,190.5327 L436.753951,226.5327 L427.753951,226.5327 Z M378.253951,226.5327 L379.672858,213.0327 L361.672858,213.0327 L360.253951,226.5327 L351.253951,226.5327 L355.037703,190.5327 L391.037703,190.5327 L387.253951,226.5327 L378.253951,226.5327 Z M363.091765,199.5327 L381.091765,199.5327 L380.618796,204.0327 L362.618796,204.0327 L363.091765,199.5327 Z M315.253951,226.5327 L318.091765,199.5327 L304.591765,199.5327 L305.537703,190.5327 L341.537703,190.5327 L340.591765,199.5327 L327.091765,199.5327 L324.253951,226.5327 L315.253951,226.5327 Z M252.253951,226.5327 L253.199889,217.5327 L280.199889,217.5327 L280.672858,213.0327 L253.672858,213.0327 L256.037703,190.5327 L292.037703,190.5327 L291.091765,199.5327 L264.091765,199.5327 L263.618796,204.0327 L290.618796,204.0327 L288.253951,226.5327 L252.253951,226.5327 Z" id="Fill-21" fill="#364751"></path>
            <path d="M230.5338,193.475912 L249.4338,211.269912 L255.0988,187.086912 L235.7638,168.802912 L244.3778,74.834912 L114.9118,80.668912 L118.6668,179.716912 L230.5338,193.475912 Z M234.9158,82.844912 L224.5968,162.379912 L213.3588,171.902912 L126.3198,167.374912 L126.8298,90.024912 L234.9158,82.844912 Z" id="schattren-lupe" fill="#172E1A"></path>
            <path d="M107.19759,221.778 L97.4035096,235.508 L75.9759231,211.29 L45.9859624,201.604 L55.0558053,193.994 L82.7507504,199.608 L148.020811,226.476 L189.674809,210.901 L200.503342,189.755 L201.807531,189.953 L194.142615,216.307 L167.120243,249.392 L144.239214,254.511 L107.19759,221.778 Z M400.51054,186.033 L445.51054,186.033 L440.780851,231.033 L395.780851,231.033 L400.51054,186.033 Z M430.591633,199.533 L427.75382,226.533 L436.75382,226.533 L440.537571,190.533 L404.537571,190.533 L400.75382,226.533 L409.75382,226.533 L412.591633,199.533 L430.591633,199.533 Z M351.01054,186.033 L396.01054,186.033 L391.280851,231.033 L346.280851,231.033 L351.01054,186.033 Z M379.672726,213.033 L378.25382,226.533 L387.25382,226.533 L391.037571,190.533 L355.037571,190.533 L351.25382,226.533 L360.25382,226.533 L361.672726,213.033 L379.672726,213.033 Z M301.51054,186.033 L346.51054,186.033 L341.780851,231.033 L296.780851,231.033 L301.51054,186.033 Z M304.591633,199.533 L318.091633,199.533 L315.25382,226.533 L324.25382,226.533 L327.091633,199.533 L340.591633,199.533 L341.537571,190.533 L305.537571,190.533 L304.591633,199.533 Z M247.281851,231.033 L249.607807,208.903 L230.358781,190.864 L116.329348,176.882 L116.159002,172.385 L87.7998963,165.098 L87.7464339,165.169 L87.7373799,165.16 L87.796578,165.082 L74.0232409,164.286 L77.6400977,171.994 L77.6325722,171.999 L79.2819781,175.877 L62.3198779,164.651 L48.3000135,165.173 L48.9762657,178.348 L42.5003198,161.802 L72.8774765,159.146 L94.2482618,160.775 L115.995422,168.071 L114.851995,137.905 L89.6938224,133.178 L89.6907653,133.15 L89.6683479,133.173 L76.0893724,130.347 L92.870849,129.372 L114.801786,136.594 L112.574604,77.835 L242.040887,72 L233.426456,165.968 L254.09054,186.033 L297.01054,186.033 L292.280851,231.033 L247.281851,231.033 Z M252.25382,226.533 L288.25382,226.533 L290.618664,204.033 L263.618664,204.033 L264.091633,199.533 L291.091633,199.533 L292.037571,190.533 L256.037571,190.533 L253.672726,213.033 L280.672726,213.033 L280.199758,217.533 L253.200758,217.533 L252.25382,226.533 Z M124.491354,87.19 L123.982439,164.541 L211.022633,169.068 L222.258435,159.546 L232.578002,80.01 L124.491354,87.19 Z M363.091633,199.533 L381.091633,199.533 L380.618664,204.033 L362.618664,204.033 L363.091633,199.533 Z M44.9096961,139.668 L51.1621567,150.843 L44.9097973,151.893 L44.9096961,139.668 Z M75.337093,146.8 L89.6683479,133.173 L89.6938224,133.178 L90.6635653,147.785 L75.337093,146.8 Z" id="grau-+-liupe" fill="#364751"></path>
            <polygon id="auge" fill="#3A4623" points="144.938473 115.751 148.026574 136.91 129.945259 141.556 157.813565 147.785 164.956049 134.603 182.809284 155.951 193.529533 125.065 202.451337 151.317 225.825644 132.057 204.92535 118.949 207.084131 88.762 176.386003 127.03"></polygon>
            <path d="M164.942849,134.638 L182.797,155.985412 L157.8,147.820612 L164.942849,134.638 Z M193.516333,125.1 L202.438137,151.352 L182.797,155.986 L193.516333,125.1 Z" id="Combined-Shape" fill="#FFEC00"></path>
            <path d="M226.6387,125.521912 L208.7237,81.584912 L204.1317,81.924912 L225.8447,132.041912 L226.6387,125.521912 Z M223.8607,146.837912 L196.1377,82.434912 L188.7677,82.944912 L222.3297,159.480912 L223.8607,146.837912 Z" id="spiegelung" fill="#FFFADB"></path>
            <path d="M400.51054,186.033 L445.51054,186.033 L440.780851,231.033 L395.780851,231.033 L400.51054,186.033 Z M430.591633,199.533 L427.75382,226.533 L436.75382,226.533 L440.537571,190.533 L404.537571,190.533 L400.75382,226.533 L409.75382,226.533 L412.591633,199.533 L430.591633,199.533 Z M351.01054,186.033 L396.01054,186.033 L391.280851,231.033 L346.280851,231.033 L351.01054,186.033 Z M379.672726,213.033 L378.25382,226.533 L387.25382,226.533 L391.037571,190.533 L355.037571,190.533 L351.25382,226.533 L360.25382,226.533 L361.672726,213.033 L379.672726,213.033 Z M301.51054,186.033 L346.51054,186.033 L341.780851,231.033 L296.780851,231.033 L301.51054,186.033 Z M304.591633,199.533 L318.091633,199.533 L315.25382,226.533 L324.25382,226.533 L327.091633,199.533 L340.591633,199.533 L341.537571,190.533 L305.537571,190.533 L304.591633,199.533 Z M247.281851,231.033 L249.607807,208.903 L230.358781,190.864 L116.329348,176.882 L112.574604,77.835 L242.040887,72 L233.426456,165.968 L254.09054,186.033 L297.01054,186.033 L292.280851,231.033 L247.281851,231.033 Z M252.25382,226.533 L288.25382,226.533 L290.618664,204.033 L263.618664,204.033 L264.091633,199.533 L291.091633,199.533 L292.037571,190.533 L256.037571,190.533 L253.672726,213.033 L280.672726,213.033 L280.199758,217.533 L253.200758,217.533 L252.25382,226.533 Z M124.491354,87.19 L123.982439,164.541 L211.022633,169.068 L222.258435,159.546 L232.578002,80.01 L124.491354,87.19 Z M363.091633,199.533 L381.091633,199.533 L380.618664,204.033 L362.618664,204.033 L363.091633,199.533 Z" id="grau-+-liupe" fill="#FFED00"></path>
        </g>
    </g>
</svg>
