<svg width="100%" height="100%" viewBox="0 0 214 183" version="1.1" xmlns="http://www.w3.org/2000/svg" xmlns:xlink="http://www.w3.org/1999/xlink" xml:space="preserve" xmlns:serif="http://www.serif.com/" style="fill-rule:evenodd;clip-rule:evenodd;stroke-linejoin:round;stroke-miterlimit:2;">
    <g transform="matrix(1,0,0,1,-42.5002,-72)">
        <path d="M222.273,159.561L232.592,80.026L124.505,87.206L123.997,164.556L211.035,169.084L222.273,159.561Z" fill="currentColor" fill-opacity="0.2"/>
        <path d="M124.417,100.571L157.473,108.491L176.692,127.028L149.139,137.523L129.945,141.557L129.974,141.553L157.813,147.786L182.81,155.951L202.45,151.351L214.975,162.9L220.633,152.335L222.299,159.356L222.273,159.561L212.184,168.11L212.604,167.326L202.451,167.868L194.551,168.226L124.242,164.569L129.943,141.556L129.949,141.548L131.841,121.901L124.318,115.669L124.417,100.571ZM124.16,139.683L129.932,141.554L124.128,144.634L124.16,139.683Z" style="fill:rgb(176,197,11);"/>
        <path d="M207.136,88.762L225.853,131.966L222.273,159.561L211.035,169.084L192.468,168.118L214.71,162.96L202.451,151.351L215.003,140.618L194.21,115.548L205.002,93.864L178.662,127.259L176.012,127.506L176.692,127.259L157.133,108.831L207.136,88.762ZM129.933,141.553L129.943,141.556L124.242,164.569L123.997,164.556L124.128,144.635L129.933,141.553ZM129.945,141.556L157.813,147.785L168.358,163.798L137.266,148.697L129.945,141.556ZM124.319,115.582L131.842,121.9L129.95,141.548L129.866,141.531L124.161,139.655L124.319,115.582Z" fill="currentColor"/>
        <path d="M118.667,179.717L132.21,198.88L139.608,182.296L118.667,179.717ZM145.883,183.066L151.35,198.031L156.498,184.392L145.883,183.066ZM163.879,185.295L166.998,194.177L171.003,186.202L163.879,185.295ZM79.55,176.07L87.795,165.083L74.022,164.286L79.55,176.07Z" style="fill:white;"/>
        <path d="M123.982,115.452L123.982,100.912L98.286,94.391L123.982,115.452ZM90.663,147.786L90.666,147.837L72.987,159.066L75.336,146.79L51.165,150.829L51.159,150.837L51.152,150.844L42.5,161.793L42.606,161.793L72.877,159.146L93.787,160.74L123.051,145.371L114.799,136.65L89.693,133.179L90.663,147.786ZM211.714,169.346L202.798,185.635L232.033,200.394C225.694,174.122 222.524,160.986 222.524,160.986C222.524,160.986 218.921,163.773 211.714,169.346ZM48.3,165.173L48.976,178.349L50.467,182.318L54.85,194.238L54.855,194.234L68.928,197.087L79.564,176.064L79.557,176.06L79.563,176.053L79.534,176.034L79.54,176.049L72.932,171.676L62.298,164.653L48.3,165.173ZM79.811,175.722L87.792,165.087L87.773,165.081L87.561,165.07L79.811,175.722ZM79.574,176.057L116.329,176.83L132.981,176.07L116.627,172.506L87.8,165.098L79.574,176.057ZM147.82,226.707L189.727,211.067L180.442,186.017L180.439,186.02L180.441,186.015L180.439,186.01L147.82,226.707ZM193.942,216.547L166.926,249.623L203.611,253.099L193.944,216.542L193.942,216.547Z"  fill="currentColor" fill-opacity="1"/>
        <path d="M107.206,221.778L144.239,254.51L88.419,248.308L97.541,235.277L107.206,221.778ZM188.932,170.885L217.416,172.008L202.797,185.635L232.027,200.391L203.623,253.074L203.602,253.066L202.605,249.297L193.942,216.541L202.797,185.645L189.74,211.05L180.442,186.011L188.932,170.885ZM179.265,169.644L183.586,170.198L180.442,186.011L180.386,185.972L180.436,186.013L147.86,226.701L147.82,226.716L82.55,199.848L68.929,197.087L73.847,187.365L79.564,176.064L79.575,176.057L116.314,176.829L118.582,177.113L118.695,179.803L132.21,198.88L142.847,174.821L142.847,174.651L151.35,198.031L159.537,176.296L159.537,172.512L166.998,194.177L179.265,169.644ZM48.96,178.304L48.977,178.349L50.469,182.317L54.851,194.238L45.8,201.831L45.788,201.829L48.974,178.357L48.96,178.304ZM123.982,144.709L122.809,170.347L122.66,170.307L94.248,160.775L93.787,160.74L123.982,144.709ZM179.584,169.346L179.413,169.347L179.265,169.644L176.991,169.352L179.413,169.347L179.584,169.346ZM51.152,150.844L42.515,161.772L42.501,161.744L44.89,151.89L44.909,151.787L44.909,151.893L51.152,150.844ZM76.066,130.352L76.141,130.358L89.638,133.167L89.641,133.197L75.336,146.8L90.663,147.786L90.666,147.837L72.988,159.066L75.337,146.79L51.165,150.829L51.159,150.837L44.909,139.668L44.909,139.756L44.89,139.625L76.066,130.352ZM98.286,94.391L105.157,99.493L123.982,115.452L123.982,139.802L92.87,129.372L92.817,129.375L108.719,118.49L98.286,94.391Z" fill="currentColor" fill-opacity="0.6"/>
        <path d="M230.534,193.476L251.679,212.841L256.221,188.883L235.764,168.803L244.378,74.835L114.912,80.669L118.667,179.717L230.534,193.476ZM234.916,82.845L224.597,162.38L213.359,171.903L126.32,167.375L126.83,90.025L234.916,82.845Z" style="fill:rgb(23,46,26);"/>
        <path d="M107.198,221.778L97.404,235.508L75.976,211.29L45.986,201.604L55.056,193.994L82.751,199.608L148.021,226.476L189.675,210.901L200.503,189.755L201.808,189.953L194.143,216.307L167.12,249.392L144.239,254.511L107.198,221.778ZM254.091,186.033L230.359,190.864L116.329,176.882L116.159,172.385L87.8,165.098L87.746,165.169L87.737,165.16L87.797,165.082L74.023,164.286L77.64,171.994L77.633,171.999L79.282,175.877L62.32,164.651L48.3,165.173L48.976,178.348L42.5,161.802L72.877,159.146L94.248,160.775L115.995,168.071L114.852,137.905L89.694,133.178L89.691,133.15L89.668,133.173L76.089,130.347L92.871,129.372L114.802,136.594L112.575,77.835L242.041,72L233.426,165.968L254.091,186.033ZM124.491,87.19L123.982,164.541L211.023,169.068L222.258,159.546L232.578,80.01L124.491,87.19ZM44.91,139.668L51.162,150.843L44.91,151.893L44.91,139.668ZM75.337,146.8L89.668,133.173L89.694,133.178L90.664,147.785L75.337,146.8Z" fill="currentColor" fill-opacity="0.2"/>
        <path d="M144.938,115.751L148.027,136.91L129.945,141.556L157.814,147.785L164.956,134.603L182.809,155.951L193.53,125.065L202.451,151.317L225.826,132.057L204.925,118.949L207.084,88.762L176.386,127.03L144.938,115.751Z" style="fill:rgb(58,70,35);"/>
        <path d="M164.943,134.638L182.797,155.985L157.8,147.821L164.943,134.638ZM193.516,125.1L202.438,151.352L182.797,155.986L193.516,125.1Z" style="fill:rgb(255,236,0);"/>
        <path d="M226.639,125.522L208.724,81.585L204.132,81.925L225.845,132.042L226.639,125.522ZM223.861,146.838L196.138,82.435L188.768,82.945L222.33,159.481L223.861,146.838Z" style="fill:rgb(255,250,219);"/>
        <path d="M254.091,186.033L249.608,208.903L230.359,190.864L116.329,176.882L112.575,77.835L242.041,72L233.426,165.968L254.091,186.033ZM124.491,87.19L123.982,164.541L211.023,169.068L222.258,159.546L232.578,80.01L124.491,87.19Z" style="fill:rgb(255,237,0);"/>
    </g>
</svg>
