<svg xmlns="http://www.w3.org/2000/svg" viewBox="0 0 600 600"><g fill-rule="evenodd" clip-rule="evenodd"><path fill-opacity=".2" d="M502.8 289.7l28.7-221.2-300.7 20-1.4 215.2 242.1 12.6 31.3-26.6z"/><path fill="#B0C50B" d="M230.6 125.6l92 22 53.5 51.6-76.6 29.2-53.4 11.2h.1l77.3 17.4 69.5 22.7 54.6-12.8 34.9 32.1 15.7-29.4 4.6 19.5-.1.6-28.1 23.8 1.2-2.2-28.2 1.5-22 1L230 303.6l15.9-64 5.3-54.7-20.9-17.3.3-42zm-.7 108.8l16.1 5.2-16.1 8.6v-13.8z"/><path d="M460.7 92.8L512.8 213l-10 76.8-31.3 26.5-51.6-2.7 61.9-14.3-34.1-32.3 34.9-29.9-57.8-69.7 30-60.3-73.3 92.8-7.4.7 1.9-.7-54.4-51.3 139.1-55.8zM246 239.6l-15.8 64h-.7l.4-55.4 16.1-8.6zm0 0l77.5 17.4 29.3 44.5-86.5-42-20.3-19.9zm-15.7-72.2l20.9 17.6-5.3 54.7h-.2l-15.9-5.2.5-67.1z"/><path fill="#FFF" d="M214.6 345.8l37.7 53.3 20.6-46.1-58.3-7.2zm75.7 9.3l15.2 41.6 14.3-37.9-29.5-3.7zm50.1 6.2l8.7 24.7 11.1-22.2-19.8-2.5zm-234.6-25.7l22.9-30.6-38.3-2.2 15.4 32.8z"/><path d="M229.4 167v-40.4l-71.5-18.1 71.5 58.5zm-92.7 90v.1l-49.2 31.2 6.5-34.1-67.2 11.2-24.1 30.5H3l84.2-7.4 58.2 4.4 81.4-42.8-23-24.3-69.8-9.7 2.7 40.9zm336.7 59.9l-24.8 45.3 81.3 41.1c-17.6-73.1-26.4-109.6-26.4-109.6s-10 7.7-30.1 23.2zM18.9 305.3l1.9 36.7 4.1 11 12.2 33.2 39.1 7.9 29.6-58.5-.1-.1-18.4-12.2-29.6-19.5-38.8 1.5zm87.6 29.4l22.2-29.6h-.7l-21.5 29.6zm-.6.9l102.2 2.2 46.3-2.1-45.5-9.9-80.2-20.6-22.8 30.4zm189.8 140.9L412.3 433l-25.8-69.7-90.8 113.2zM424 448.2l-75.1 92 102 9.7L424 448.2z"/><path fill-opacity=".6" d="M182.7 462.8l103 91-155.2-17.2 25.4-36.2 26.8-37.6zm227.4-141.6l79.2 3.1-40.7 37.9 81.3 41-79 146.5h-.1l-2.8-10.5-24.1-91.1 24.6-85.9-36.3 70.7-25.7-69.6 23.6-42.1zm-26.9-3.4l12 1.5-8.7 44-.2-.1.1.1-90.6 113.2h-.1l-181.6-74.7-37.9-7.7 13.7-27 15.9-31.4 102.2 2.1 6.3.8.3 7.5 37.6 53.1 29.6-66.9v-.5l23.7 65 22.8-60.5v-10.5l20.8 60.3 34.1-68.3zM20.7 341.9v.1l4.2 11 12.2 33.2-25.2 21.1 8.9-65.3-.1-.1zm208.7-93.5l-3.3 71.3-.4-.1-79-26.5-1.3-.1 84-44.6zm154.7 68.5h-.5l-.4.8-6.3-.8h7.2zM26.8 265.5l-24 30.4v-.1l6.6-27.4.1-.3v.3l17.3-2.9zm69.3-57h.2l37.5 7.8v.1L94 254.2l42.6 2.7v.1l-49.2 31.2 6.5-34.1-67.2 11.2-17.2-30.9v.2l-.1-.4 86.7-25.7zm61.8-100.1l19.1 14.2 52.4 44.4v67.7l-86.5-29h-.1l44.2-30.3-29.1-67z"/><path fill="#172E1A" d="M525.8 384.1l58.8 53.9 12.6-66.6-56.9-55.9 24-261.4-360.1 16.2 10.4 275.5 311.2 38.3zM538 76.3l-28.7 221.2L478 324l-242.1-12.6 1.4-215.2L538 76.3z"/><path fill-opacity=".2" d="M182.7 462.8L155.5 501l-59.6-67.4-83.4-26.9 25.2-21.2 77 15.6 181.6 74.7 115.9-43.3 30.1-58.8 3.6.6-21.3 73.3-75.2 92-63.6 14.2-103.1-91zm408.6-99.4l-66 13.4-317.2-38.9-.5-12.5-78.9-20.3-.2.2.2-.2-38.3-2.2 10.1 21.4 4.6 10.8-47.2-31.2-39 1.5 1.9 36.6-18-46 84.5-7.4 59.4 4.5 60.5 20.3-3.2-83.9-70-13.1v-.1l-.1.1-37.8-7.9 46.7-2.7 61 20.1-6.2-163.4 360.1-16.2-24 261.4 57.6 55.7zm-360.5-275l-1.4 215.2 242.1 12.6 31.3-26.5 28.7-221.3-300.7 20zM9.5 234.4l17.4 31.1-17.4 2.9v-34zm84.6 19.8l39.9-37.9h.1l2.7 40.6-42.7-2.7z"/><path fill="#3A4623" d="M287.7 167.9l8.6 58.9-50.3 12.9 77.5 17.3 19.9-36.7 49.7 59.4 29.8-85.9 24.8 73 65-53.6-58.1-36.5 6-84-85.4 106.4-87.5-31.2z"/><path fill="#FFEC00" d="M343.3 220.4l49.7 59.4-69.5-22.7 19.8-36.7zm79.5-26.5l24.8 73-54.6 12.9 29.8-85.9z"/><path fill="#FFFADB" d="M515 195L465.2 72.8l-12.8.9 60.4 139.4L515 195zm-7.8 59.3L430.1 75.2l-20.5 1.4L503 289.5l4.2-35.2z"/><path fill="#FFED00" d="M591.3 363.4L578.9 427l-53.5-50.2-317.2-38.9-10.4-275.5 360.1-16.2-24 261.4 57.4 55.8zm-360.5-275l-1.4 215.2 242.1 12.6 31.3-26.5 28.7-221.3-300.7 20z"/></g></svg>